<svg width="520" height="180" viewBox="0 0 520 180" xmlns="http://www.w3.org/2000/svg">
  <rect x="0" y="0" width="520" height="180" rx="8" fill="#020617" stroke="#1e293b" stroke-width="1"/>
  <rect x="0" y="0" width="520" height="36" rx="8" fill="#0f172a"/>
  <text x="20" y="24" fill="#e5e7eb" font-family="system-ui, sans-serif" font-size="14" font-weight="bold">Language usage</text>
  <text x="500" y="24" text-anchor="end" fill="#64748b" font-family="system-ui, sans-serif" font-size="11">by projects</text>
  <g transform="translate(24, 52)" font-family="system-ui, sans-serif" font-size="12">
    <text x="0" y="0" fill="#e5e7eb">C</text>
    <rect x="48" y="-10" width="220" height="14" rx="4" fill="#ef4444"/>
    <text x="278" y="2" fill="#9ca3af">40%</text>
    <text x="0" y="28" fill="#e5e7eb">C++</text>
    <rect x="48" y="18" width="140" height="14" rx="4" fill="#dc2626"/>
    <text x="198" y="30" fill="#9ca3af">25%</text>
    <text x="0" y="56" fill="#e5e7eb">C#</text>
    <rect x="48" y="46" width="88" height="14" rx="4" fill="#b91c1c"/>
    <text x="146" y="58" fill="#9ca3af">15%</text>
    <text x="0" y="84" fill="#e5e7eb">Shell</text>
    <rect x="48" y="74" width="55" height="14" rx="4" fill="#991b1b"/>
    <text x="113" y="86" fill="#9ca3af">10%</text>
    <text x="0" y="112" fill="#e5e7eb">Python</text>
    <rect x="48" y="102" width="28" height="14" rx="4" fill="#7f1d1d"/>
    <text x="86" y="114" fill="#9ca3af">5%</text>
    <text x="0" y="140" fill="#e5e7eb">SQL</text>
    <rect x="48" y="130" width="28" height="14" rx="4" fill="#7f1d1d"/>
    <text x="86" y="142" fill="#9ca3af">5%</text>
  </g>
</svg>
